<svg width="50" height="50" viewBox="0 0 50 50" fill="none" xmlns="http://www.w3.org/2000/svg">
<path fillRule="evenodd" clipRule="evenodd" d="M42.9688 17.8809C42.9688 17.7782 42.9487 17.6766 42.9095 17.5818C42.8703 17.4869 42.8128 17.4007 42.7402 17.3281L32.6719 7.25977C32.5245 7.11437 32.3261 7.03235 32.1191 7.03125H17.8809C17.6739 7.03235 17.4755 7.11437 17.3281 7.25977L7.25977 17.3281C7.18724 17.4007 7.12973 17.4869 7.09052 17.5818C7.05131 17.6766 7.03117 17.7782 7.03125 17.8809V32.1191C7.03117 32.2218 7.05131 32.3234 7.09052 32.4182C7.12973 32.5131 7.18724 32.5993 7.25977 32.6719L17.3281 42.7402C17.4755 42.8856 17.6739 42.9676 17.8809 42.9688H32.1191C32.3261 42.9676 32.5245 42.8856 32.6719 42.7402L42.7402 32.6719C42.8128 32.5993 42.8703 32.5131 42.9095 32.4182C42.9487 32.3234 42.9688 32.2218 42.9688 32.1191V17.8809ZM24.2188 15.625V26.5625C24.2188 26.7697 24.3011 26.9684 24.4476 27.1149C24.5941 27.2614 24.7928 27.3438 25 27.3438C25.2072 27.3438 25.4059 27.2614 25.5524 27.1149C25.6989 26.9684 25.7812 26.7697 25.7812 26.5625V15.625C25.7812 15.4178 25.6989 15.2191 25.5524 15.0726C25.4059 14.9261 25.2072 14.8438 25 14.8438C24.7928 14.8438 24.5941 14.9261 24.4476 15.0726C24.3011 15.2191 24.2188 15.4178 24.2188 15.625ZM24.1319 32.2946C24.3889 32.1229 24.691 32.0312 25 32.0312C25.4144 32.0312 25.8118 32.1959 26.1049 32.4889C26.3979 32.7819 26.5625 33.1793 26.5625 33.5938C26.5625 33.9028 26.4709 34.2049 26.2992 34.4618C26.1275 34.7188 25.8835 34.9191 25.5979 35.0373C25.3124 35.1556 24.9983 35.1865 24.6952 35.1262C24.3921 35.0659 24.1137 34.9171 23.8951 34.6986C23.6766 34.4801 23.5278 34.2017 23.4675 33.8986C23.4072 33.5955 23.4382 33.2813 23.5564 32.9958C23.6747 32.7103 23.875 32.4663 24.1319 32.2946Z" fill="#FF4545"/>
<path fillRule="evenodd" clipRule="evenodd" d="M44.5312 17.8809V32.1191C44.5315 32.427 44.4711 32.7319 44.3534 33.0164C44.2358 33.301 44.0633 33.5595 43.8457 33.7773L33.7773 43.8457C33.5595 44.0633 33.301 44.2358 33.0164 44.3534C32.7319 44.4711 32.427 44.5315 32.1191 44.5312H17.8809C17.573 44.5315 17.2681 44.4711 16.9836 44.3534C16.699 44.2358 16.4405 44.0633 16.2227 43.8457L6.1543 33.7773C5.93672 33.5595 5.76418 33.301 5.64656 33.0164C5.52893 32.7319 5.46851 32.427 5.46875 32.1191V17.8809C5.46851 17.573 5.52893 17.2681 5.64656 16.9836C5.76418 16.699 5.93672 16.4405 6.1543 16.2227L16.2227 6.1543C16.4405 5.93672 16.699 5.76418 16.9836 5.64656C17.2681 5.52893 17.573 5.46851 17.8809 5.46875H32.1191C32.427 5.46851 32.7319 5.52893 33.0164 5.64656C33.301 5.76418 33.5595 5.93672 33.7773 6.1543L43.8457 16.2227C44.0633 16.4405 44.2358 16.699 44.3534 16.9836C44.4711 17.2681 44.5315 17.573 44.5312 17.8809ZM42.9688 17.8809C42.9688 17.7782 42.9487 17.6766 42.9095 17.5818C42.8703 17.4869 42.8128 17.4007 42.7402 17.3281L32.6719 7.25977C32.5245 7.11437 32.3261 7.03235 32.1191 7.03125H17.8809C17.6739 7.03235 17.4755 7.11437 17.3281 7.25977L7.25977 17.3281C7.18724 17.4007 7.12973 17.4869 7.09052 17.5818C7.05131 17.6766 7.03117 17.7782 7.03125 17.8809V32.1191C7.03117 32.2218 7.05131 32.3234 7.09052 32.4182C7.12973 32.5131 7.18724 32.5993 7.25977 32.6719L17.3281 42.7402C17.4755 42.8856 17.6739 42.9676 17.8809 42.9688H32.1191C32.3261 42.9676 32.5245 42.8856 32.6719 42.7402L42.7402 32.6719C42.8128 32.5993 42.8703 32.5131 42.9095 32.4182C42.9487 32.3234 42.9688 32.2218 42.9688 32.1191V17.8809Z" fill="#FF4545"/>
</svg>
